<svg width="150" height="148" viewBox="0 0 150 148" fill="none" xmlns="http://www.w3.org/2000/svg">
<g clip-path="url(#clip0_20_91)">
<path d="M138.701 62.5946H102.976C101.039 62.5946 99.4633 60.4074 99.4633 57.7192V21.0508C99.4633 18.3626 101.039 16.1754 102.976 16.1754H146.487C148.424 16.1754 150 18.3626 150 21.0508V46.9129C150 55.5598 144.931 62.5946 138.701 62.5946Z" fill="#F2F2F2"/>
<path d="M73.9927 142.295H76.8418L79.6106 120.887H73.1577L73.9927 142.295Z" fill="#A0616A"/>
<path d="M73.063 140.345L77.6146 140.074V142.022L81.9419 145.008C82.1557 145.155 82.3166 145.367 82.4013 145.612C82.486 145.858 82.49 146.124 82.4127 146.371C82.3354 146.619 82.1809 146.836 81.9717 146.99C81.7624 147.143 81.5095 147.226 81.2498 147.226H75.8309L74.8969 145.299L74.5322 147.226H72.4891L73.063 140.345Z" fill="#2F2E41"/>
<path d="M31.6888 135.505L34.288 136.671L45.5875 118.272L39.7004 115.633L31.6888 135.505Z" fill="#A0616A"/>
<path d="M31.6396 133.347L35.9034 134.961L35.105 136.738L37.8293 141.232C37.9639 141.454 38.024 141.713 38.0007 141.972C37.9774 142.23 37.8721 142.474 37.7 142.669C37.528 142.863 37.2982 142.997 37.0443 143.052C36.7904 143.107 36.5257 143.079 36.2887 142.973L31.3449 140.756L31.2825 138.616L30.16 140.225L28.296 139.389L31.6396 133.347Z" fill="#2F2E41"/>
<path d="M52.1872 74.1784L65.3655 72.3933C65.3655 72.3933 82.3072 111.536 81.5979 131.553L70.847 132.878C70.847 132.878 70.9288 124.67 71.5252 124.042C72.1216 123.414 72.8574 124.213 72.1216 122.417C71.3859 120.621 70.7956 120.167 71.6793 119.292C72.5631 118.416 62.1079 103.101 62.1079 103.101C62.1079 103.101 45.6566 123.773 44.7738 124.361C43.8909 124.949 42.8878 125.079 43.4629 126.558C44.038 128.036 43.0075 130.87 43.0075 130.87C43.0075 130.87 36.5242 129.887 33.8756 123.419C33.8756 123.419 44.5857 103.927 45.5579 103.603C46.5301 103.28 46.9716 104.897 46.5301 103.28C46.0887 101.663 45.2058 102.251 46.0887 101.663C46.6834 101.284 47.3269 100.987 48.0016 100.781L51.4273 91.7329C48.7863 85.6811 48.9553 79.8238 52.1872 74.1784Z" fill="#2F2E41"/>
<path d="M52.0608 63.8205L52.5445 68.3024L52.2598 74.1798L65.2907 72.6332L66.5151 63.8205L64.9551 63.8357L52.0608 63.8205Z" fill="#FFB6B6"/>
<path d="M63.1449 49.3435L58.2407 45.4756L55.6664 45.326L51.8465 47.7708L50.9111 52.538L48.699 57.9062L51.9436 72.3933C51.9436 72.3933 52.2479 73.4329 51.4504 73.5577C50.653 73.6826 50.7486 75.215 50.7486 75.215C50.7486 75.215 50.911 76.5431 50.1367 76.66C49.3623 76.777 47.2975 76.777 49.1043 79.0977C50.9111 81.4185 65.5447 72.6227 65.5447 72.6227L67.2774 61.7607C67.2774 61.7607 71.3027 56.3595 66.9677 53.2661L63.1449 49.3435Z" fill="#FF5ACD"/>
<path d="M41.7359 82.236C41.5198 81.9666 41.3654 81.6531 41.2837 81.3177C41.202 80.9823 41.1949 80.633 41.2629 80.2946C41.3309 79.9561 41.4724 79.6367 41.6773 79.3587C41.8823 79.0808 42.1457 78.8511 42.4491 78.6859L48.6178 58.0042L52.475 59.9442L45.7572 79.7675C46.0013 80.2951 46.0431 80.8938 45.8748 81.4501C45.7065 82.0065 45.3397 82.4818 44.8441 82.7861C44.3484 83.0904 43.7582 83.2024 43.1853 83.101C42.6125 82.9996 42.0967 82.6918 41.7359 82.236H41.7359Z" fill="#A0616A"/>
<path d="M52.7323 47.5794C52.7323 47.5794 51.6297 46.994 50.8755 49.5273C50.2717 51.5554 45.3723 63.6357 45.3099 66.5727C44.9067 66.6581 44.5434 66.875 44.2772 67.1894C44.011 67.5037 43.857 67.8976 43.8396 68.309L49.8972 69.12C50.9557 68.2281 51.2334 67.0234 50.8239 66.6659L52.1391 63.0772L57.6262 51.6592L53.5369 47.9885L52.7323 47.5794Z" fill="#FF5ACD"/>
<path d="M85.1001 75.4379C85.1783 75.1016 85.1818 74.7523 85.1103 74.4146C85.0388 74.0769 84.894 73.7589 84.6862 73.4831C84.4784 73.2073 84.2125 72.9804 83.9074 72.8183C83.6023 72.6562 83.2653 72.563 82.9203 72.5451L68.7695 56.3995L65.7677 59.9778L80.4057 74.9494C80.414 75.5306 80.6354 76.0885 81.028 76.5174C81.4206 76.9464 81.957 77.2165 82.5357 77.2767C83.1143 77.337 83.695 77.183 84.1676 76.8441C84.6403 76.5052 84.972 76.0048 85.1001 75.4379V75.4379Z" fill="#A0616A"/>
<path d="M60.1834 48.9401C60.1834 48.9401 60.9242 47.9359 62.7008 49.8942C64.1231 51.462 73.7698 60.2377 75.0974 62.8589C75.4979 62.7617 75.9194 62.8004 76.2955 62.9688C76.6716 63.1373 76.9809 63.4259 77.1747 63.7893L72.0638 67.1375C70.7233 66.7906 69.9515 65.8244 70.166 65.3251L67.4267 62.6575L57.5367 54.7329L59.635 49.6565L60.1834 48.9401Z" fill="#FF5ACD"/>
<path d="M62.694 45.6685C63.2619 44.8537 58.3552 42.9274 57.4053 43.2936C55.4565 44.0491 53.1542 45.6634 51.3628 45.8929C51.3972 45.1827 51.3338 44.4713 51.1744 43.7784C50.9808 44.4824 50.7898 45.1889 50.5962 45.8954C48.9056 45.6556 46.0896 42.8243 46.7813 36.2927C47.0678 33.6032 49.0424 30.7435 55.4953 29.6837C61.4525 28.709 62.9057 33.1261 63.4632 36.0116C64.7331 42.5639 64.1059 45.568 62.694 45.6685Z" fill="#2F2E41"/>
<path d="M57.1483 43.3032C60.0964 43.3032 62.4864 40.9156 62.4864 37.9704C62.4864 35.0252 60.0964 32.6376 57.1483 32.6376C54.2002 32.6376 51.8103 35.0252 51.8103 37.9704C51.8103 40.9156 54.2002 43.3032 57.1483 43.3032Z" fill="#A0616A"/>
<path d="M64.333 36.0675L61.776 36.4579C60.6483 35.7523 60.2188 34.7053 60.1652 33.4746L60.4223 36.6645L59.2002 36.8511C58.4025 36.3194 58.0461 35.7437 58.2606 35.1109L58.4105 36.9717C55.153 38.1443 51.9953 39.009 49.3295 38.3581C49.1921 37.4603 49.2331 36.5442 49.4502 35.6622C49.6672 34.7801 50.056 33.9495 50.5944 33.2176C51.1328 32.4857 51.8102 31.8669 52.5879 31.3965C53.3657 30.9262 54.2286 30.6135 55.1273 30.4763L56.4434 30.2753C57.3421 30.1381 58.2591 30.1791 59.142 30.3959C60.0249 30.6127 60.8563 31.0012 61.589 31.539C62.3216 32.0769 62.941 32.7536 63.4118 33.5306C63.8826 34.3076 64.1956 35.1696 64.333 36.0675V36.0675Z" fill="#2F2E41"/>
<path d="M17.4147 142.3C17.2662 142.307 17.1193 142.268 16.9938 142.189C16.8682 142.11 16.7702 141.994 16.7129 141.857C16.6555 141.72 16.6417 141.568 16.6733 141.423C16.7049 141.278 16.7804 141.147 16.8895 141.046L16.9391 140.849C16.9326 140.833 16.926 140.817 16.9194 140.801C16.7699 140.448 16.5194 140.148 16.1992 139.937C15.8791 139.726 15.5037 139.614 15.1202 139.615C14.7367 139.617 14.3622 139.731 14.0436 139.945C13.7251 140.158 13.4768 140.461 13.3299 140.815C12.7428 142.227 11.9954 143.642 11.8113 145.136C11.7303 145.796 11.7645 146.465 11.9124 147.114C10.5335 144.109 9.81745 140.843 9.81284 137.537C9.81255 136.707 9.85868 135.879 9.95102 135.054C10.0273 134.378 10.1332 133.707 10.2686 133.041C11.0077 129.427 12.5945 126.039 14.8987 123.156C16.014 122.548 16.9159 121.613 17.4829 120.477C17.6883 120.069 17.8335 119.633 17.914 119.183C17.7882 119.2 17.4396 117.285 17.5345 117.168C17.3592 116.902 17.0454 116.77 16.8539 116.511C15.9016 115.221 14.5896 115.446 13.9047 117.199C12.4415 117.937 12.4273 119.16 13.3251 120.337C13.8963 121.086 13.9748 122.099 14.476 122.9C14.4244 122.966 14.3708 123.03 14.3192 123.096C13.3767 124.307 12.5552 125.607 11.8665 126.978C12.034 125.442 11.8341 123.888 11.2833 122.445C10.7251 121.099 9.67882 119.966 8.75743 118.803C7.65069 117.406 5.38122 118.016 5.18623 119.787C5.18435 119.804 5.18251 119.821 5.18071 119.838C5.31756 119.915 5.45153 119.997 5.58261 120.084C5.74728 120.194 5.87487 120.351 5.94867 120.534C6.02248 120.718 6.03905 120.92 5.99621 121.113C5.95337 121.306 5.85313 121.482 5.70861 121.617C5.5641 121.752 5.38204 121.841 5.18631 121.871L5.16627 121.874C5.21503 122.367 5.3012 122.855 5.42407 123.335C4.24203 127.902 6.79395 129.565 10.4377 129.64C10.5182 129.681 10.5966 129.722 10.677 129.761C9.98511 131.72 9.55112 133.76 9.38594 135.831C9.29242 137.053 9.29794 138.28 9.40244 139.501L9.39625 139.457C9.13224 138.1 8.4074 136.875 7.34415 135.99C5.76495 134.694 3.53385 134.216 1.83017 133.175C1.64911 133.059 1.43859 132.997 1.22342 132.996C1.00826 132.996 0.79743 133.057 0.615806 133.172C0.434182 133.287 0.289332 133.452 0.198348 133.647C0.107365 133.841 0.0740432 134.058 0.102304 134.271C0.104588 134.286 0.106905 134.301 0.109267 134.317C0.363236 134.42 0.610518 134.539 0.849667 134.673C0.986524 134.75 1.12049 134.832 1.25157 134.919C1.41623 135.029 1.54382 135.186 1.61762 135.369C1.69142 135.553 1.70799 135.754 1.66516 135.948C1.62232 136.141 1.52207 136.316 1.37756 136.452C1.23305 136.587 1.051 136.676 0.855275 136.706L0.835212 136.709C0.820781 136.711 0.8084 136.713 0.793984 136.715C1.22792 137.75 1.83697 138.703 2.59445 139.531C3.33354 143.518 6.50797 143.896 9.90359 142.735H9.90566C10.2782 144.353 10.818 145.927 11.5164 147.433H17.2705C17.2911 147.369 17.3097 147.303 17.3282 147.239C16.7956 147.273 16.2609 147.241 15.7361 147.145C16.163 146.621 16.5899 146.094 17.0168 145.57C17.0263 145.561 17.0353 145.55 17.0436 145.54C17.2602 145.272 17.4788 145.006 17.6953 144.738L17.6955 144.738C17.707 143.917 17.6127 143.098 17.4149 142.301L17.4147 142.3Z" fill="#F2F2F2"/>
<path d="M-6.7294 147.886L124.729 148C124.801 148 124.87 147.953 124.921 147.87C124.971 147.787 125 147.675 125 147.557C125 147.44 124.971 147.327 124.921 147.244C124.87 147.161 124.801 147.114 124.729 147.114L-6.7294 147C-6.80124 147 -6.87007 147.047 -6.92079 147.13C-6.97152 147.213 -7 147.326 -7 147.443C-7 147.56 -6.97152 147.673 -6.92079 147.756C-6.87007 147.839 -6.80124 147.885 -6.7294 147.886V147.886Z" fill="#CACACA"/>
<path d="M133.454 76.4546H85.2029C84.2716 76.4535 83.3787 76.0835 82.7202 75.4256C82.0617 74.7677 81.6913 73.8757 81.6902 72.9454V28.1489C81.6913 27.2185 82.0617 26.3266 82.7202 25.6687C83.3787 25.0108 84.2716 24.6408 85.2029 24.6397H133.454C134.385 24.6408 135.278 25.0108 135.936 25.6687C136.595 26.3266 136.965 27.2185 136.966 28.1489V72.9454C136.965 73.8757 136.595 74.7677 135.936 75.4256C135.278 76.0835 134.385 76.4535 133.454 76.4546V76.4546Z" fill="#E6E6E6"/>
<path d="M123.298 74.0876H87.5727C86.6414 74.0865 85.7486 73.7165 85.0901 73.0586C84.4316 72.4007 84.0611 71.5088 84.0601 70.5784V30.5178C84.0611 29.5875 84.4316 28.6955 85.0901 28.0376C85.7486 27.3798 86.6414 27.0097 87.5727 27.0086H131.084C132.015 27.0097 132.908 27.3798 133.567 28.0376C134.225 28.6955 134.596 29.5875 134.597 30.5178V62.8C134.593 65.7926 133.402 68.6617 131.284 70.7778C129.166 72.8939 126.294 74.0842 123.298 74.0876Z" fill="white"/>
<path d="M104.312 40.3753C104.312 41.3955 104.009 42.3929 103.442 43.2414C102.875 44.0898 102.069 44.7512 101.125 45.1419C100.182 45.5326 99.1437 45.635 98.142 45.4362C97.1403 45.2374 96.2201 44.7463 95.4978 44.0251C94.7755 43.3038 94.2835 42.3848 94.084 41.3842C93.8845 40.3836 93.9865 39.3463 94.3771 38.4037C94.7676 37.461 95.4293 36.6551 96.2783 36.0881C97.1273 35.5211 98.1255 35.2183 99.1468 35.218C99.8251 35.2171 100.497 35.3499 101.124 35.6087C101.751 35.8675 102.32 36.2473 102.8 36.7264C103.28 37.2054 103.66 37.7743 103.92 38.4004C104.179 39.0265 104.312 39.6976 104.312 40.3753V40.3753Z" fill="#FF5ACD"/>
<path d="M107.858 49.6813H95.3121C94.5894 49.6813 94.0035 50.2665 94.0035 50.9885V51.6133C94.0035 52.3352 94.5894 52.9205 95.3121 52.9205H107.858C108.581 52.9205 109.167 52.3352 109.167 51.6133V50.9885C109.167 50.2665 108.581 49.6813 107.858 49.6813Z" fill="#3F3D56"/>
<path d="M123.302 56.1598H95.3547C94.632 56.1598 94.0461 56.745 94.0461 57.467V58.0918C94.0461 58.8138 94.632 59.399 95.3547 59.399H123.302C124.025 59.399 124.611 58.8138 124.611 58.0918V57.467C124.611 56.745 124.025 56.1598 123.302 56.1598Z" fill="#3F3D56"/>
<path d="M123.302 62.6383H95.3547C94.632 62.6383 94.0461 63.2235 94.0461 63.9455V64.5703C94.0461 65.2923 94.632 65.8775 95.3547 65.8775H123.302C124.025 65.8775 124.611 65.2923 124.611 64.5703V63.9455C124.611 63.2235 124.025 62.6383 123.302 62.6383Z" fill="#3F3D56"/>
<path d="M99.262 41.1228C100.26 41.1228 101.069 40.3147 101.069 39.3178C101.069 38.3209 100.26 37.5128 99.262 37.5128C98.2641 37.5128 97.4552 38.3209 97.4552 39.3178C97.4552 40.3147 98.2641 41.1228 99.262 41.1228Z" fill="white"/>
<path d="M101.199 41.7677H97.3271C97.0876 41.7679 96.858 41.8631 96.6886 42.0323C96.5192 42.2015 96.424 42.4309 96.4237 42.6702C96.4788 43.4432 96.5997 44.2101 96.7851 44.9626C97.5615 45.3623 98.4269 45.5585 99.3 45.5328C100.173 45.5071 101.025 45.2603 101.777 44.8156C101.943 44.1103 102.051 43.3929 102.102 42.6702C102.102 42.4309 102.007 42.2015 101.837 42.0323C101.668 41.8631 101.438 41.7679 101.199 41.7677Z" fill="white"/>
<path d="M128.776 35.7266C128.101 35.7266 127.441 35.5267 126.88 35.1522C126.319 34.7777 125.882 34.2454 125.624 33.6226C125.365 32.9997 125.298 32.3144 125.43 31.6532C125.561 30.9921 125.886 30.3848 126.363 29.9081C126.84 29.4314 127.448 29.1068 128.11 28.9753C128.772 28.8438 129.458 28.9113 130.081 29.1692C130.705 29.4272 131.238 29.8641 131.613 30.4246C131.987 30.9851 132.188 31.6441 132.188 32.3182C132.188 33.2222 131.828 34.0891 131.188 34.7283C130.548 35.3675 129.681 35.7266 128.776 35.7266V35.7266Z" fill="#E6E6E6"/>
<path d="M129.966 33.0315L129.252 32.3182L129.966 31.605C130.029 31.5419 130.064 31.4564 130.064 31.3673C130.064 31.2781 130.029 31.1926 129.966 31.1295C129.903 31.0665 129.817 31.031 129.728 31.031C129.638 31.031 129.553 31.0665 129.49 31.1295L128.776 31.8427L128.062 31.1295C127.999 31.0665 127.913 31.031 127.824 31.031C127.735 31.031 127.649 31.0665 127.586 31.1295C127.523 31.1926 127.487 31.2781 127.487 31.3673C127.487 31.4564 127.523 31.5419 127.586 31.605L128.3 32.3182L127.586 33.0315C127.523 33.0945 127.487 33.1801 127.487 33.2692C127.487 33.3584 127.523 33.4439 127.586 33.507C127.649 33.57 127.735 33.6054 127.824 33.6054C127.913 33.6054 127.999 33.57 128.062 33.507L128.776 32.7937L129.49 33.5069C129.521 33.5382 129.558 33.5629 129.599 33.5798C129.64 33.5967 129.684 33.6054 129.728 33.6054C129.772 33.6054 129.816 33.5967 129.856 33.5798C129.897 33.5629 129.934 33.5382 129.966 33.5069C129.997 33.4757 130.022 33.4387 130.039 33.3979C130.056 33.3571 130.064 33.3134 130.064 33.2692C130.064 33.225 130.056 33.1813 130.039 33.1405C130.022 33.0997 129.997 33.0627 129.966 33.0315V33.0315Z" fill="white"/>
</g>
<defs>
<clipPath id="clip0_20_91">
<rect width="150" height="148" fill="white"/>
</clipPath>
</defs>
</svg>
