<svg width="240" height="184" viewBox="0 0 240 184" fill="none" xmlns="http://www.w3.org/2000/svg">
<path opacity="0.0991676" d="M116.454 182.048L4.66655 114.239C1.10762 112.185 -1.94289 108.82 1.52479 106.612L113.709 40.2482C115.391 39.1778 117.946 38.4753 119.66 39.4989L236.988 109.402C240.547 111.523 241.186 117.43 237.64 119.571L131.185 181.941C126.638 184.648 121.037 184.688 116.454 182.048Z" fill="#6862E6"/>
<g clip-path="url(#clip0_9_31)">
<path d="M197.701 62.5946H161.976C160.039 62.5946 158.463 60.4074 158.463 57.7192V21.0508C158.463 18.3626 160.039 16.1754 161.976 16.1754H205.487C207.424 16.1754 209 18.3626 209 21.0508V46.9129C209 55.5598 203.931 62.5946 197.701 62.5946Z" fill="#F2F2F2"/>
<path d="M132.993 142.295H135.842L138.611 120.887H132.158L132.993 142.295Z" fill="#A0616A"/>
<path d="M132.063 140.345L136.615 140.074V142.022L140.942 145.008C141.156 145.155 141.317 145.367 141.401 145.612C141.486 145.858 141.49 146.124 141.413 146.371C141.335 146.619 141.181 146.836 140.972 146.99C140.762 147.143 140.51 147.226 140.25 147.226H134.831L133.897 145.299L133.532 147.226H131.489L132.063 140.345Z" fill="#2F2E41"/>
<path d="M90.6888 135.505L93.288 136.671L104.587 118.272L98.7004 115.633L90.6888 135.505Z" fill="#A0616A"/>
<path d="M90.6396 133.347L94.9034 134.961L94.105 136.738L96.8293 141.232C96.9639 141.454 97.024 141.713 97.0007 141.972C96.9774 142.23 96.8721 142.474 96.7 142.669C96.528 142.863 96.2982 142.997 96.0443 143.052C95.7904 143.107 95.5257 143.079 95.2887 142.973L90.3449 140.756L90.2825 138.616L89.16 140.225L87.296 139.39L90.6396 133.347Z" fill="#2F2E41"/>
<path d="M111.187 74.1784L124.365 72.3933C124.365 72.3933 141.307 111.536 140.598 131.553L129.847 132.878C129.847 132.878 129.929 124.67 130.525 124.042C131.122 123.414 131.857 124.213 131.122 122.417C130.386 120.621 129.796 120.167 130.679 119.292C131.563 118.416 121.108 103.101 121.108 103.101C121.108 103.101 104.657 123.773 103.774 124.361C102.891 124.949 101.888 125.079 102.463 126.558C103.038 128.036 102.008 130.87 102.008 130.87C102.008 130.87 95.5242 129.887 92.8756 123.419C92.8756 123.419 103.586 103.927 104.558 103.603C105.53 103.28 105.972 104.897 105.53 103.28C105.089 101.663 104.206 102.251 105.089 101.663C105.683 101.284 106.327 100.987 107.002 100.781L110.427 91.7329C107.786 85.6811 107.955 79.8238 111.187 74.1784Z" fill="#2F2E41"/>
<path d="M111.061 63.8205L111.544 68.3024L111.26 74.1798L124.291 72.6332L125.515 63.8205L123.955 63.8357L111.061 63.8205Z" fill="#FFB6B6"/>
<path d="M122.145 49.3435L117.241 45.4756L114.666 45.326L110.846 47.7708L109.911 52.538L107.699 57.9062L110.944 72.3933C110.944 72.3933 111.248 73.4329 110.45 73.5577C109.653 73.6826 109.749 75.215 109.749 75.215C109.749 75.215 109.911 76.5431 109.137 76.66C108.362 76.777 106.298 76.777 108.104 79.0977C109.911 81.4185 124.545 72.6227 124.545 72.6227L126.277 61.7607C126.277 61.7607 130.303 56.3595 125.968 53.2661L122.145 49.3435Z" fill="#FF5ACD"/>
<path d="M100.736 82.236C100.52 81.9666 100.365 81.6531 100.284 81.3177C100.202 80.9823 100.195 80.6331 100.263 80.2946C100.331 79.9561 100.472 79.6367 100.677 79.3587C100.882 79.0808 101.146 78.8511 101.449 78.6859L107.618 58.0042L111.475 59.9443L104.757 79.7675C105.001 80.2951 105.043 80.8938 104.875 81.4501C104.706 82.0065 104.34 82.4819 103.844 82.7861C103.348 83.0904 102.758 83.2025 102.185 83.1011C101.612 82.9997 101.097 82.6919 100.736 82.236H100.736Z" fill="#A0616A"/>
<path d="M111.732 47.5794C111.732 47.5794 110.63 46.994 109.875 49.5273C109.272 51.5554 104.372 63.6357 104.31 66.5727C103.907 66.6581 103.543 66.875 103.277 67.1894C103.011 67.5037 102.857 67.8976 102.84 68.309L108.897 69.12C109.956 68.2281 110.233 67.0234 109.824 66.6659L111.139 63.0772L116.626 51.6592L112.537 47.9885L111.732 47.5794Z" fill="#FF5ACD"/>
<path d="M144.1 75.4379C144.178 75.1017 144.182 74.7524 144.11 74.4146C144.039 74.0769 143.894 73.7589 143.686 73.4831C143.478 73.2073 143.213 72.9804 142.907 72.8183C142.602 72.6562 142.265 72.563 141.92 72.5451L127.769 56.3995L124.768 59.9778L139.406 74.9494C139.414 75.5306 139.635 76.0885 140.028 76.5174C140.421 76.9464 140.957 77.2165 141.536 77.2768C142.114 77.337 142.695 77.183 143.168 76.8441C143.64 76.5052 143.972 76.0049 144.1 75.4379V75.4379Z" fill="#A0616A"/>
<path d="M119.183 48.9401C119.183 48.9401 119.924 47.9359 121.701 49.8942C123.123 51.462 132.77 60.2377 134.097 62.8589C134.498 62.7617 134.919 62.8004 135.296 62.9688C135.672 63.1373 135.981 63.4259 136.175 63.7893L131.064 67.1375C129.723 66.7906 128.951 65.8244 129.166 65.3251L126.427 62.6575L116.537 54.7329L118.635 49.6565L119.183 48.9401Z" fill="#FF5ACD"/>
<path d="M121.694 45.6685C122.262 44.8537 117.355 42.9275 116.405 43.2936C114.457 44.0492 112.154 45.6634 110.363 45.8929C110.397 45.1828 110.334 44.4713 110.174 43.7784C109.981 44.4824 109.79 45.1889 109.596 45.8954C107.906 45.6556 105.09 42.8243 105.781 36.2927C106.068 33.6032 108.042 30.7435 114.495 29.6837C120.453 28.709 121.906 33.1262 122.463 36.0116C123.733 42.5639 123.106 45.568 121.694 45.6685Z" fill="#2F2E41"/>
<path d="M116.148 43.3032C119.096 43.3032 121.486 40.9156 121.486 37.9704C121.486 35.0252 119.096 32.6376 116.148 32.6376C113.2 32.6376 110.81 35.0252 110.81 37.9704C110.81 40.9156 113.2 43.3032 116.148 43.3032Z" fill="#A0616A"/>
<path d="M123.333 36.0675L120.776 36.4579C119.648 35.7523 119.219 34.7053 119.165 33.4746L119.422 36.6645L118.2 36.8511C117.403 36.3194 117.046 35.7437 117.261 35.1109L117.411 36.9717C114.153 38.1443 110.995 39.009 108.329 38.3581C108.192 37.4603 108.233 36.5442 108.45 35.6622C108.667 34.7801 109.056 33.9495 109.594 33.2176C110.133 32.4857 110.81 31.8669 111.588 31.3965C112.366 30.9262 113.229 30.6135 114.127 30.4763L115.443 30.2753C116.342 30.1381 117.259 30.1791 118.142 30.3959C119.025 30.6127 119.856 31.0012 120.589 31.539C121.322 32.0769 121.941 32.7536 122.412 33.5306C122.883 34.3076 123.196 35.1696 123.333 36.0675V36.0675Z" fill="#2F2E41"/>
<path d="M52.2706 147.886L183.729 148C183.801 148 183.87 147.953 183.921 147.87C183.971 147.787 184 147.675 184 147.557C184 147.44 183.971 147.327 183.921 147.244C183.87 147.161 183.801 147.114 183.729 147.114L52.2706 147C52.1988 147 52.1299 147.047 52.0792 147.13C52.0285 147.213 52 147.326 52 147.443C52 147.56 52.0285 147.673 52.0792 147.756C52.1299 147.839 52.1988 147.885 52.2706 147.886V147.886Z" fill="#CACACA"/>
<path d="M192.454 76.4546H144.203C143.272 76.4535 142.379 76.0835 141.72 75.4256C141.062 74.7677 140.691 73.8757 140.69 72.9454V28.1489C140.691 27.2185 141.062 26.3266 141.72 25.6687C142.379 25.0108 143.272 24.6408 144.203 24.6397H192.454C193.385 24.6408 194.278 25.0108 194.936 25.6687C195.595 26.3266 195.965 27.2185 195.966 28.1489V72.9454C195.965 73.8757 195.595 74.7677 194.936 75.4256C194.278 76.0835 193.385 76.4535 192.454 76.4546V76.4546Z" fill="#E6E6E6"/>
<path d="M182.298 74.0876H146.573C145.641 74.0865 144.749 73.7165 144.09 73.0586C143.432 72.4007 143.061 71.5088 143.06 70.5784V30.5178C143.061 29.5875 143.432 28.6955 144.09 28.0376C144.749 27.3798 145.641 27.0097 146.573 27.0086H190.084C191.015 27.0097 191.908 27.3798 192.567 28.0376C193.225 28.6955 193.596 29.5875 193.597 30.5178V62.8C193.593 65.7926 192.402 68.6617 190.284 70.7778C188.166 72.8939 185.294 74.0842 182.298 74.0876Z" fill="white"/>
<path d="M163.312 40.3753C163.312 41.3955 163.009 42.3929 162.442 43.2414C161.875 44.0898 161.069 44.7512 160.125 45.1419C159.182 45.5326 158.144 45.635 157.142 45.4362C156.14 45.2374 155.22 44.7463 154.498 44.0251C153.775 43.3038 153.283 42.3848 153.084 41.3842C152.884 40.3836 152.986 39.3463 153.377 38.4037C153.768 37.461 154.429 36.6551 155.278 36.0881C156.127 35.5211 157.126 35.2183 158.147 35.218C158.825 35.2171 159.497 35.3499 160.124 35.6087C160.751 35.8675 161.32 36.2473 161.8 36.7264C162.28 37.2054 162.66 37.7743 162.92 38.4004C163.179 39.0265 163.312 39.6976 163.312 40.3753V40.3753Z" fill="#FF5ACD"/>
<path d="M166.858 49.6813H154.312C153.589 49.6813 153.004 50.2665 153.004 50.9885V51.6133C153.004 52.3353 153.589 52.9205 154.312 52.9205H166.858C167.581 52.9205 168.167 52.3353 168.167 51.6133V50.9885C168.167 50.2665 167.581 49.6813 166.858 49.6813Z" fill="#3F3D56"/>
<path d="M182.302 56.1598H154.355C153.632 56.1598 153.046 56.745 153.046 57.467V58.0918C153.046 58.8137 153.632 59.399 154.355 59.399H182.302C183.025 59.399 183.611 58.8137 183.611 58.0918V57.467C183.611 56.745 183.025 56.1598 182.302 56.1598Z" fill="#3F3D56"/>
<path d="M182.302 62.6383H154.355C153.632 62.6383 153.046 63.2235 153.046 63.9455V64.5703C153.046 65.2923 153.632 65.8775 154.355 65.8775H182.302C183.025 65.8775 183.611 65.2923 183.611 64.5703V63.9455C183.611 63.2235 183.025 62.6383 182.302 62.6383Z" fill="#3F3D56"/>
<path d="M158.262 41.1228C159.26 41.1228 160.069 40.3147 160.069 39.3178C160.069 38.3209 159.26 37.5128 158.262 37.5128C157.264 37.5128 156.455 38.3209 156.455 39.3178C156.455 40.3147 157.264 41.1228 158.262 41.1228Z" fill="white"/>
<path d="M160.199 41.7677H156.327C156.088 41.768 155.858 41.8631 155.689 42.0323C155.519 42.2015 155.424 42.4309 155.424 42.6702C155.479 43.4432 155.6 44.2101 155.785 44.9626C156.562 45.3623 157.427 45.5585 158.3 45.5328C159.173 45.5071 160.025 45.2603 160.777 44.8156C160.943 44.1103 161.051 43.3929 161.102 42.6702C161.102 42.4309 161.007 42.2015 160.837 42.0323C160.668 41.8631 160.438 41.768 160.199 41.7677Z" fill="white"/>
<path d="M187.776 35.7267C187.101 35.7267 186.441 35.5268 185.88 35.1522C185.319 34.7777 184.882 34.2454 184.624 33.6226C184.365 32.9998 184.298 32.3144 184.43 31.6533C184.561 30.9921 184.886 30.3848 185.363 29.9081C185.84 29.4314 186.448 29.1068 187.11 28.9753C187.772 28.8438 188.458 28.9113 189.081 29.1693C189.705 29.4272 190.238 29.8641 190.613 30.4246C190.987 30.9851 191.188 31.6441 191.188 32.3182C191.188 33.2222 190.828 34.0892 190.188 34.7284C189.548 35.3676 188.681 35.7267 187.776 35.7267V35.7267Z" fill="#E6E6E6"/>
<path d="M188.966 33.0315L188.252 32.3182L188.966 31.605C189.029 31.5419 189.064 31.4564 189.064 31.3672C189.064 31.2781 189.029 31.1925 188.966 31.1295C188.903 31.0664 188.817 31.031 188.728 31.031C188.638 31.031 188.553 31.0664 188.49 31.1295L187.776 31.8427L187.062 31.1295C186.999 31.0664 186.913 31.031 186.824 31.031C186.735 31.031 186.649 31.0664 186.586 31.1295C186.523 31.1925 186.487 31.2781 186.487 31.3672C186.487 31.4564 186.523 31.5419 186.586 31.605L187.3 32.3182L186.586 33.0315C186.523 33.0945 186.487 33.18 186.487 33.2692C186.487 33.3584 186.523 33.4439 186.586 33.507C186.649 33.57 186.735 33.6054 186.824 33.6054C186.913 33.6054 186.999 33.57 187.062 33.507L187.776 32.7937L188.49 33.5069C188.521 33.5382 188.558 33.5629 188.599 33.5798C188.64 33.5967 188.684 33.6054 188.728 33.6054C188.772 33.6054 188.816 33.5967 188.856 33.5798C188.897 33.5629 188.934 33.5382 188.966 33.5069C188.997 33.4757 189.022 33.4386 189.039 33.3979C189.056 33.3571 189.064 33.3133 189.064 33.2692C189.064 33.225 189.056 33.1813 189.039 33.1405C189.022 33.0997 188.997 33.0627 188.966 33.0314V33.0315Z" fill="white"/>
</g>
<defs>
<clipPath id="clip0_9_31">
<rect width="150" height="148" fill="white" transform="translate(59)"/>
</clipPath>
</defs>
</svg>
